<svg xmlns="http://www.w3.org/2000/svg" xmlns:xlink="http://www.w3.org/1999/xlink">
  <defs/>
  <g>
    <path stroke="none" fill="#FFFFFF" d="M-13.25 21.3 Q-21.85 16.3 -24.4 6.8 -26.95 -2.85 -21.95 -11.5 L-21.95 -11.45 Q-17.05 -20.05 -7.4 -22.65 2.2 -25.35 10.85 -20.3 19.45 -15.35 22.05 -5.7 23.1 -1.8 22.9 2 L24.35 0.75 Q25.25 -0.05 26.5 0 27.75 0.1 28.55 1.05 29.4 1.95 29.3 3.2 29.2 4.45 28.3 5.25 L18.15 14.1 Q17.45 14.7 16.6 14.85 L14.9 14.6 Q14.05 14.2 13.6 13.45 L6.7 2.35 Q6.05 1.25 6.35 0.1 6.6 -1.15 7.7 -1.8 8.75 -2.45 9.95 -2.15 11.15 -1.9 11.8 -0.8 L12.9 0.95 Q12.95 -1.05 12.4 -3.05 L12.4 -3.1 Q10.85 -8.75 5.85 -11.65 0.8 -14.55 -4.75 -13 L-4.8 -13 Q-10.45 -11.5 -13.3 -6.5 -16.25 -1.45 -14.75 4.25 L-14.75 4.2 Q-13.25 9.75 -8.2 12.7 L-8.15 12.7 -5.6 13.95 Q-3.7 14.7 -2.85 16.6 -2 18.45 -2.7 20.4 -3.45 22.3 -5.35 23.15 L-9.15 23.3 Q-11.25 22.5 -13.2 21.35 L-13.25 21.3"/>
  </g>
</svg>