<svg xmlns="http://www.w3.org/2000/svg" xmlns:xlink="http://www.w3.org/1999/xlink">
  <defs/>
  <g>
    <path stroke="none" fill="#FFFFFF" d="M-2.1 -30.15 Q-1.25 -31.05 0 -31.05 1.25 -31.05 2.15 -30.15 L12.2 -20.1 Q13.05 -19.25 13.05 -18 13.05 -16.75 12.2 -15.85 11.3 -15 10.05 -15 8.8 -15 7.95 -15.85 L5 -18.8 5 -5 18.8 -5 15.9 -7.9 Q15 -8.8 15 -10.05 15 -11.3 15.9 -12.15 16.75 -13.05 18 -13.05 19.25 -13.05 20.15 -12.15 L30.2 -2.1 Q31.05 -1.25 31.05 0 31.05 1.25 30.2 2.1 L20.15 12.15 Q19.25 13.05 18.05 13.05 16.8 13.05 15.9 12.2 15 11.3 15 10.1 15 8.85 15.9 7.95 L18.85 5 5 5 5 18.85 7.95 15.9 Q8.8 15 10.05 15 11.25 15 12.15 15.9 13.05 16.75 13.05 18 13.05 19.2 12.2 20.1 L2.15 30.15 Q1.25 31.05 0 31.05 -1.25 31.05 -2.1 30.2 L-12.15 20.15 Q-13.05 19.25 -13.05 18 -13.05 16.75 -12.15 15.9 -11.3 15 -10.05 15 -8.8 15 -7.9 15.9 L-5 18.8 -5 5 -18.8 5 -15.85 7.95 Q-15 8.8 -15 10.05 -15 11.3 -15.85 12.2 -16.75 13.05 -18 13.05 -19.25 13.05 -20.1 12.2 L-30.15 2.15 Q-31.05 1.25 -31.05 0 -31.05 -1.25 -30.15 -2.1 L-20.1 -12.15 Q-19.25 -13.05 -18 -13.05 -16.8 -13.05 -15.9 -12.15 -15 -11.3 -15 -10.05 -15 -8.85 -15.85 -7.95 L-18.8 -5 -5 -5 -5 -18.8 -7.9 -15.9 Q-8.8 -15 -10 -15 -11.25 -15 -12.15 -15.85 -13.05 -16.75 -13.05 -17.95 -13.05 -19.2 -12.15 -20.1 L-2.1 -30.15"/>
  </g>
</svg>